<?xml version="1.0" encoding="UTF-8" standalone="no"?>
<!-- Created with Inkscape (http://www.inkscape.org/) -->

<svg
   xmlns:dc="http://purl.org/dc/elements/1.1/"
   xmlns:cc="http://creativecommons.org/ns#"
   xmlns:rdf="http://www.w3.org/1999/02/22-rdf-syntax-ns#"
   xmlns:svg="http://www.w3.org/2000/svg"
   xmlns="http://www.w3.org/2000/svg"
   xmlns:sodipodi="http://sodipodi.sourceforge.net/DTD/sodipodi-0.dtd"
   xmlns:inkscape="http://www.inkscape.org/namespaces/inkscape"
   width="164.11223mm"
   height="91.460472mm"
   viewBox="0 0 164.11223 91.460472"
   version="1.1"
   id="svg8"
   inkscape:version="0.92.4 (5da689c313, 2019-01-14)"
   sodipodi:docname="logo_icon.svg">
  <defs
     id="defs2">
    <marker
       inkscape:stockid="EmptyDiamondL"
       orient="auto"
       refY="0"
       refX="0"
       id="marker7549"
       style="overflow:visible"
       inkscape:isstock="true">
      <path
         id="path7547"
         d="M 0,-7.0710768 -7.0710894,0 0,7.0710589 7.0710462,0 Z"
         style="fill:#ffffff;fill-rule:evenodd;stroke:#000000;stroke-width:1.00000003pt"
         transform="scale(0.8)"
         inkscape:connector-curvature="0" />
    </marker>
    <marker
       inkscape:stockid="EmptyDiamondL"
       orient="auto"
       refY="0"
       refX="0"
       id="marker7527"
       style="overflow:visible"
       inkscape:isstock="true">
      <path
         id="path7525"
         d="M 0,-7.0710768 -7.0710894,0 0,7.0710589 7.0710462,0 Z"
         style="fill:#ffffff;fill-rule:evenodd;stroke:#000000;stroke-width:1.00000003pt"
         transform="scale(0.8)"
         inkscape:connector-curvature="0" />
    </marker>
    <marker
       inkscape:stockid="EmptyDiamondL"
       orient="auto"
       refY="0"
       refX="0"
       id="EmptyDiamondL"
       style="overflow:visible"
       inkscape:isstock="true">
      <path
         id="path7347"
         d="M 0,-7.0710768 -7.0710894,0 0,7.0710589 7.0710462,0 Z"
         style="fill:#ffffff;fill-rule:evenodd;stroke:#000000;stroke-width:1.00000003pt"
         transform="scale(0.8)"
         inkscape:connector-curvature="0" />
    </marker>
    <marker
       inkscape:stockid="DotL"
       orient="auto"
       refY="0"
       refX="0"
       id="DotL"
       style="overflow:visible"
       inkscape:isstock="true">
      <path
         id="path7302"
         d="m -2.5,-1 c 0,2.76 -2.24,5 -5,5 -2.76,0 -5,-2.24 -5,-5 0,-2.76 2.24,-5 5,-5 2.76,0 5,2.24 5,5 z"
         style="fill-rule:evenodd;stroke:#000000;stroke-width:1.00000003pt"
         transform="matrix(0.8,0,0,0.8,5.92,0.8)"
         inkscape:connector-curvature="0" />
    </marker>
  </defs>
  <sodipodi:namedview
     id="base"
     pagecolor="#ffffff"
     bordercolor="#666666"
     borderopacity="1.0"
     inkscape:pageopacity="0.0"
     inkscape:pageshadow="2"
     inkscape:zoom="0.49497475"
     inkscape:cx="1861.0648"
     inkscape:cy="-853.48298"
     inkscape:document-units="mm"
     inkscape:current-layer="layer2"
     showgrid="false"
     units="mm"
     inkscape:window-width="2880"
     inkscape:window-height="1526"
     inkscape:window-x="2869"
     inkscape:window-y="-11"
     inkscape:window-maximized="1"
     showguides="false"
     inkscape:snap-grids="false"
     inkscape:snap-midpoints="true"
     inkscape:snap-others="false"
     inkscape:object-paths="true">
    <inkscape:grid
       type="xygrid"
       id="grid5718"
       originx="0.25648728"
       originy="-614.97076" />
  </sodipodi:namedview>
  <metadata
     id="metadata5">
    <rdf:RDF>
      <cc:Work
         rdf:about="">
        <dc:format>image/svg+xml</dc:format>
        <dc:type
           rdf:resource="http://purl.org/dc/dcmitype/StillImage" />
        <dc:title></dc:title>
      </cc:Work>
    </rdf:RDF>
  </metadata>
  <g
     inkscape:groupmode="layer"
     id="layer2"
     inkscape:label="Arrow"
     style="display:inline"
     transform="translate(0.25648726,-0.56878219)">
    <path
       style="opacity:1;fill:#000000;fill-opacity:1;stroke:none;stroke-width:1.15998697;stroke-linecap:round;stroke-linejoin:miter;stroke-miterlimit:4;stroke-dasharray:none;stroke-opacity:1;paint-order:stroke markers fill"
       d="M 16.490015,90.812484 0.62189512,49.699784 c 0,-0.12643 16.31190988,-6.08428 52.41735988,11.71482 28.64014,14.11888 56.849505,-24.27608 57.038575,-23.89795 L 84.350535,28.356454 138.4614,1.7619037 162.23945,56.026074 133.52786,45.922184 c 0.65517,0.32759 -24.05164,51.13584 -65.262775,43.68839 -36.23142,-6.54753 -51.77507,1.20191 -51.77507,1.20191 z"
       id="path3814"
       inkscape:connector-curvature="0"
       sodipodi:nodetypes="ccscccccsc" />
  </g>
  <g
     inkscape:label="Arrow copy 1"
     id="g2013"
     inkscape:groupmode="layer"
     style="display:inline"
     transform="translate(0.25648726,-0.56878219)">
    <path
       style="fill:none;stroke:#ffffff;stroke-width:1.75676477;stroke-linecap:butt;stroke-linejoin:miter;stroke-miterlimit:4;stroke-dasharray:none;stroke-opacity:1"
       d="M 16.490015,90.812484 0.62189512,49.699784 c 0,-0.12643 16.31190988,-6.08428 52.41735988,11.71482 28.64014,14.11888 56.785555,-23.5666 57.038575,-23.89795 L 84.350535,28.356454 138.4614,1.7619037 162.23945,56.026074 133.52786,45.922184 c -0.37332,0.76038 -24.05164,51.13584 -65.262775,43.68839 -36.23142,-6.54753 -51.77507,1.20191 -51.77507,1.20191 z"
       id="path5840"
       inkscape:connector-curvature="0" />
  </g>
</svg>
